<mxfile host="Electron" modified="2025-02-23T03:35:16.015Z" agent="Mozilla/5.0 (Windows NT 10.0; Win64; x64) AppleWebKit/537.36 (KHTML, like Gecko) draw.io/21.2.8 Chrome/112.0.5615.165 Electron/24.2.0 Safari/537.36" etag="Mh4Aa5_Y_aX1AGmv6vL2" version="21.2.8" type="device">
  <diagram name="第 1 页" id="2TdzW1cNiW87xmYJIBx-">
    <mxGraphModel dx="1863" dy="606" grid="1" gridSize="10" guides="1" tooltips="1" connect="1" arrows="1" fold="1" page="1" pageScale="1" pageWidth="827" pageHeight="1169" math="0" shadow="0">
      <root>
        <mxCell id="0" />
        <mxCell id="1" parent="0" />
        <mxCell id="YpfszNmPL0_AXZ_S2VL3-103" value="" style="rounded=0;whiteSpace=wrap;html=1;" vertex="1" parent="1">
          <mxGeometry x="-440" y="450" width="120" height="410" as="geometry" />
        </mxCell>
        <mxCell id="YpfszNmPL0_AXZ_S2VL3-45" value="" style="rounded=0;whiteSpace=wrap;html=1;fillColor=#fff2cc;strokeColor=#d6b656;" vertex="1" parent="1">
          <mxGeometry x="60" y="125" width="200" height="275" as="geometry" />
        </mxCell>
        <mxCell id="YpfszNmPL0_AXZ_S2VL3-8" value="" style="rounded=0;whiteSpace=wrap;html=1;fillColor=#dae8fc;strokeColor=#6c8ebf;" vertex="1" parent="1">
          <mxGeometry x="350" y="280" width="170" height="40" as="geometry" />
        </mxCell>
        <mxCell id="YpfszNmPL0_AXZ_S2VL3-1" value="&lt;font style=&quot;font-size: 16px;&quot;&gt;node:&lt;/font&gt;" style="text;strokeColor=none;align=center;fillColor=none;html=1;verticalAlign=middle;whiteSpace=wrap;rounded=0;" vertex="1" parent="1">
          <mxGeometry x="70" y="140" width="60" height="30" as="geometry" />
        </mxCell>
        <mxCell id="YpfszNmPL0_AXZ_S2VL3-2" value="" style="rounded=1;whiteSpace=wrap;html=1;" vertex="1" parent="1">
          <mxGeometry x="140" y="140" width="100" height="40" as="geometry" />
        </mxCell>
        <mxCell id="YpfszNmPL0_AXZ_S2VL3-3" value="&lt;font style=&quot;font-size: 16px;&quot;&gt;level&lt;/font&gt;" style="text;strokeColor=none;align=center;fillColor=none;html=1;verticalAlign=middle;whiteSpace=wrap;rounded=0;" vertex="1" parent="1">
          <mxGeometry x="160" y="145" width="60" height="30" as="geometry" />
        </mxCell>
        <mxCell id="YpfszNmPL0_AXZ_S2VL3-4" value="" style="rounded=1;whiteSpace=wrap;html=1;" vertex="1" parent="1">
          <mxGeometry x="140" y="200" width="100" height="40" as="geometry" />
        </mxCell>
        <mxCell id="YpfszNmPL0_AXZ_S2VL3-5" value="&lt;font style=&quot;font-size: 16px;&quot;&gt;key&lt;/font&gt;" style="text;strokeColor=none;align=center;fillColor=none;html=1;verticalAlign=middle;whiteSpace=wrap;rounded=0;" vertex="1" parent="1">
          <mxGeometry x="160" y="205" width="60" height="30" as="geometry" />
        </mxCell>
        <mxCell id="YpfszNmPL0_AXZ_S2VL3-6" value="" style="rounded=1;whiteSpace=wrap;html=1;" vertex="1" parent="1">
          <mxGeometry x="140" y="260" width="100" height="40" as="geometry" />
        </mxCell>
        <mxCell id="YpfszNmPL0_AXZ_S2VL3-7" value="&lt;font style=&quot;font-size: 16px;&quot;&gt;value&lt;/font&gt;" style="text;strokeColor=none;align=center;fillColor=none;html=1;verticalAlign=middle;whiteSpace=wrap;rounded=0;" vertex="1" parent="1">
          <mxGeometry x="160" y="265" width="60" height="30" as="geometry" />
        </mxCell>
        <mxCell id="YpfszNmPL0_AXZ_S2VL3-11" value="" style="rounded=1;whiteSpace=wrap;html=1;" vertex="1" parent="1">
          <mxGeometry x="140" y="320" width="100" height="40" as="geometry" />
        </mxCell>
        <mxCell id="YpfszNmPL0_AXZ_S2VL3-12" value="&lt;font style=&quot;font-size: 16px;&quot;&gt;[]next&lt;/font&gt;" style="text;strokeColor=none;align=center;fillColor=none;html=1;verticalAlign=middle;whiteSpace=wrap;rounded=0;" vertex="1" parent="1">
          <mxGeometry x="160" y="325" width="60" height="30" as="geometry" />
        </mxCell>
        <mxCell id="YpfszNmPL0_AXZ_S2VL3-13" value="" style="endArrow=classic;html=1;rounded=0;exitX=1;exitY=0.5;exitDx=0;exitDy=0;" edge="1" parent="1" source="YpfszNmPL0_AXZ_S2VL3-11">
          <mxGeometry width="50" height="50" relative="1" as="geometry">
            <mxPoint x="320" y="370" as="sourcePoint" />
            <mxPoint x="300" y="340" as="targetPoint" />
          </mxGeometry>
        </mxCell>
        <mxCell id="YpfszNmPL0_AXZ_S2VL3-14" value="" style="shape=curlyBracket;whiteSpace=wrap;html=1;rounded=1;labelPosition=left;verticalLabelPosition=middle;align=right;verticalAlign=middle;" vertex="1" parent="1">
          <mxGeometry x="310" y="280" width="20" height="120" as="geometry" />
        </mxCell>
        <mxCell id="YpfszNmPL0_AXZ_S2VL3-41" value="" style="rounded=0;whiteSpace=wrap;html=1;fillColor=#dae8fc;strokeColor=#6c8ebf;" vertex="1" parent="1">
          <mxGeometry x="350" y="360" width="170" height="40" as="geometry" />
        </mxCell>
        <mxCell id="YpfszNmPL0_AXZ_S2VL3-42" value="&lt;font style=&quot;font-size: 20px;&quot;&gt;&lt;b&gt;...&lt;/b&gt;&lt;/font&gt;" style="text;strokeColor=none;align=center;fillColor=none;html=1;verticalAlign=middle;whiteSpace=wrap;rounded=0;" vertex="1" parent="1">
          <mxGeometry x="405" y="325" width="60" height="30" as="geometry" />
        </mxCell>
        <mxCell id="YpfszNmPL0_AXZ_S2VL3-43" value="&lt;font style=&quot;font-size: 16px;&quot;&gt;nextnode in level-1&lt;/font&gt;" style="text;strokeColor=none;align=center;fillColor=none;html=1;verticalAlign=middle;whiteSpace=wrap;rounded=0;" vertex="1" parent="1">
          <mxGeometry x="350" y="285" width="160" height="30" as="geometry" />
        </mxCell>
        <mxCell id="YpfszNmPL0_AXZ_S2VL3-44" value="&lt;font style=&quot;font-size: 16px;&quot;&gt;nextnode in 0&lt;/font&gt;" style="text;strokeColor=none;align=center;fillColor=none;html=1;verticalAlign=middle;whiteSpace=wrap;rounded=0;" vertex="1" parent="1">
          <mxGeometry x="355" y="365" width="160" height="30" as="geometry" />
        </mxCell>
        <mxCell id="YpfszNmPL0_AXZ_S2VL3-46" value="" style="rounded=0;whiteSpace=wrap;html=1;fillColor=#d5e8d4;strokeColor=#82b366;" vertex="1" parent="1">
          <mxGeometry x="-440" y="125" width="220" height="275" as="geometry" />
        </mxCell>
        <mxCell id="YpfszNmPL0_AXZ_S2VL3-47" value="" style="rounded=0;whiteSpace=wrap;html=1;fillColor=#f8cecc;strokeColor=#b85450;" vertex="1" parent="1">
          <mxGeometry x="-130" y="280" width="170" height="40" as="geometry" />
        </mxCell>
        <mxCell id="YpfszNmPL0_AXZ_S2VL3-48" value="&lt;font style=&quot;font-size: 16px;&quot;&gt;headnode:&lt;/font&gt;" style="text;strokeColor=none;align=center;fillColor=none;html=1;verticalAlign=middle;whiteSpace=wrap;rounded=0;" vertex="1" parent="1">
          <mxGeometry x="-420" y="140" width="60" height="30" as="geometry" />
        </mxCell>
        <mxCell id="YpfszNmPL0_AXZ_S2VL3-49" value="" style="rounded=1;whiteSpace=wrap;html=1;" vertex="1" parent="1">
          <mxGeometry x="-340" y="140" width="100" height="40" as="geometry" />
        </mxCell>
        <mxCell id="YpfszNmPL0_AXZ_S2VL3-50" value="&lt;font style=&quot;font-size: 16px;&quot;&gt;level_max&lt;/font&gt;" style="text;strokeColor=none;align=center;fillColor=none;html=1;verticalAlign=middle;whiteSpace=wrap;rounded=0;" vertex="1" parent="1">
          <mxGeometry x="-320" y="145" width="60" height="30" as="geometry" />
        </mxCell>
        <mxCell id="YpfszNmPL0_AXZ_S2VL3-51" value="" style="rounded=1;whiteSpace=wrap;html=1;" vertex="1" parent="1">
          <mxGeometry x="-340" y="200" width="100" height="40" as="geometry" />
        </mxCell>
        <mxCell id="YpfszNmPL0_AXZ_S2VL3-52" value="&lt;span style=&quot;font-size: 16px;&quot;&gt;0&lt;/span&gt;" style="text;strokeColor=none;align=center;fillColor=none;html=1;verticalAlign=middle;whiteSpace=wrap;rounded=0;" vertex="1" parent="1">
          <mxGeometry x="-320" y="205" width="60" height="30" as="geometry" />
        </mxCell>
        <mxCell id="YpfszNmPL0_AXZ_S2VL3-53" value="" style="rounded=1;whiteSpace=wrap;html=1;" vertex="1" parent="1">
          <mxGeometry x="-340" y="260" width="100" height="40" as="geometry" />
        </mxCell>
        <mxCell id="YpfszNmPL0_AXZ_S2VL3-54" value="&lt;font style=&quot;font-size: 16px;&quot;&gt;0&lt;/font&gt;" style="text;strokeColor=none;align=center;fillColor=none;html=1;verticalAlign=middle;whiteSpace=wrap;rounded=0;" vertex="1" parent="1">
          <mxGeometry x="-320" y="265" width="60" height="30" as="geometry" />
        </mxCell>
        <mxCell id="YpfszNmPL0_AXZ_S2VL3-55" value="" style="rounded=1;whiteSpace=wrap;html=1;" vertex="1" parent="1">
          <mxGeometry x="-340" y="320" width="100" height="40" as="geometry" />
        </mxCell>
        <mxCell id="YpfszNmPL0_AXZ_S2VL3-56" value="&lt;font style=&quot;font-size: 16px;&quot;&gt;[]next&lt;/font&gt;" style="text;strokeColor=none;align=center;fillColor=none;html=1;verticalAlign=middle;whiteSpace=wrap;rounded=0;" vertex="1" parent="1">
          <mxGeometry x="-320" y="325" width="60" height="30" as="geometry" />
        </mxCell>
        <mxCell id="YpfszNmPL0_AXZ_S2VL3-57" value="" style="endArrow=classic;html=1;rounded=0;exitX=1;exitY=0.5;exitDx=0;exitDy=0;" edge="1" parent="1" source="YpfszNmPL0_AXZ_S2VL3-55">
          <mxGeometry width="50" height="50" relative="1" as="geometry">
            <mxPoint x="-160" y="370" as="sourcePoint" />
            <mxPoint x="-180" y="340" as="targetPoint" />
          </mxGeometry>
        </mxCell>
        <mxCell id="YpfszNmPL0_AXZ_S2VL3-58" value="" style="shape=curlyBracket;whiteSpace=wrap;html=1;rounded=1;labelPosition=left;verticalLabelPosition=middle;align=right;verticalAlign=middle;" vertex="1" parent="1">
          <mxGeometry x="-170" y="280" width="20" height="120" as="geometry" />
        </mxCell>
        <mxCell id="YpfszNmPL0_AXZ_S2VL3-59" value="" style="rounded=0;whiteSpace=wrap;html=1;fillColor=#f8cecc;strokeColor=#b85450;" vertex="1" parent="1">
          <mxGeometry x="-130" y="360" width="170" height="40" as="geometry" />
        </mxCell>
        <mxCell id="YpfszNmPL0_AXZ_S2VL3-60" value="&lt;font style=&quot;font-size: 20px;&quot;&gt;&lt;b&gt;...&lt;/b&gt;&lt;/font&gt;" style="text;strokeColor=none;align=center;fillColor=none;html=1;verticalAlign=middle;whiteSpace=wrap;rounded=0;" vertex="1" parent="1">
          <mxGeometry x="-75" y="325" width="60" height="30" as="geometry" />
        </mxCell>
        <mxCell id="YpfszNmPL0_AXZ_S2VL3-62" value="&lt;font style=&quot;font-size: 16px;&quot;&gt;tail_node_0&lt;/font&gt;" style="text;strokeColor=none;align=center;fillColor=none;html=1;verticalAlign=middle;whiteSpace=wrap;rounded=0;" vertex="1" parent="1">
          <mxGeometry x="-125" y="365" width="160" height="30" as="geometry" />
        </mxCell>
        <mxCell id="YpfszNmPL0_AXZ_S2VL3-63" value="&lt;font style=&quot;font-size: 16px;&quot;&gt;tail_node_level_max&lt;/font&gt;" style="text;strokeColor=none;align=center;fillColor=none;html=1;verticalAlign=middle;whiteSpace=wrap;rounded=0;" vertex="1" parent="1">
          <mxGeometry x="-125" y="285" width="160" height="30" as="geometry" />
        </mxCell>
        <mxCell id="YpfszNmPL0_AXZ_S2VL3-77" value="" style="rounded=1;whiteSpace=wrap;html=1;fillColor=#fff2cc;strokeColor=#d6b656;" vertex="1" parent="1">
          <mxGeometry x="-425" y="720" width="90" height="40" as="geometry" />
        </mxCell>
        <mxCell id="YpfszNmPL0_AXZ_S2VL3-78" value="" style="rounded=1;whiteSpace=wrap;html=1;fillColor=#fff2cc;strokeColor=#d6b656;" vertex="1" parent="1">
          <mxGeometry x="-425" y="655" width="90" height="40" as="geometry" />
        </mxCell>
        <mxCell id="YpfszNmPL0_AXZ_S2VL3-79" value="" style="rounded=1;whiteSpace=wrap;html=1;fillColor=#fff2cc;strokeColor=#d6b656;" vertex="1" parent="1">
          <mxGeometry x="-425" y="590" width="90" height="40" as="geometry" />
        </mxCell>
        <mxCell id="YpfszNmPL0_AXZ_S2VL3-80" value="" style="rounded=1;whiteSpace=wrap;html=1;fillColor=#fff2cc;strokeColor=#d6b656;" vertex="1" parent="1">
          <mxGeometry x="-425" y="530" width="90" height="40" as="geometry" />
        </mxCell>
        <mxCell id="YpfszNmPL0_AXZ_S2VL3-81" value="" style="rounded=1;whiteSpace=wrap;html=1;fillColor=#fff2cc;strokeColor=#d6b656;" vertex="1" parent="1">
          <mxGeometry x="-425" y="470" width="90" height="40" as="geometry" />
        </mxCell>
        <mxCell id="YpfszNmPL0_AXZ_S2VL3-99" value="&lt;font style=&quot;font-size: 16px;&quot;&gt;head&lt;/font&gt;" style="text;strokeColor=none;align=center;fillColor=none;html=1;verticalAlign=middle;whiteSpace=wrap;rounded=0;" vertex="1" parent="1">
          <mxGeometry x="-410" y="780" width="60" height="30" as="geometry" />
        </mxCell>
        <mxCell id="YpfszNmPL0_AXZ_S2VL3-104" value="&lt;font style=&quot;font-size: 16px;&quot;&gt;max_level&lt;/font&gt;" style="text;strokeColor=none;align=center;fillColor=none;html=1;verticalAlign=middle;whiteSpace=wrap;rounded=0;" vertex="1" parent="1">
          <mxGeometry x="-410" y="820" width="60" height="30" as="geometry" />
        </mxCell>
        <mxCell id="YpfszNmPL0_AXZ_S2VL3-106" value="" style="rounded=0;whiteSpace=wrap;html=1;" vertex="1" parent="1">
          <mxGeometry x="-255" y="450" width="120" height="410" as="geometry" />
        </mxCell>
        <mxCell id="YpfszNmPL0_AXZ_S2VL3-107" value="" style="rounded=1;whiteSpace=wrap;html=1;fillColor=#fff2cc;strokeColor=#d6b656;" vertex="1" parent="1">
          <mxGeometry x="-240" y="720" width="90" height="40" as="geometry" />
        </mxCell>
        <mxCell id="YpfszNmPL0_AXZ_S2VL3-108" value="" style="rounded=1;whiteSpace=wrap;html=1;fillColor=#fff2cc;strokeColor=#d6b656;" vertex="1" parent="1">
          <mxGeometry x="-240" y="655" width="90" height="40" as="geometry" />
        </mxCell>
        <mxCell id="YpfszNmPL0_AXZ_S2VL3-109" value="" style="rounded=1;whiteSpace=wrap;html=1;fillColor=#fff2cc;strokeColor=#d6b656;" vertex="1" parent="1">
          <mxGeometry x="-240" y="590" width="90" height="40" as="geometry" />
        </mxCell>
        <mxCell id="YpfszNmPL0_AXZ_S2VL3-110" value="" style="rounded=1;whiteSpace=wrap;html=1;" vertex="1" parent="1">
          <mxGeometry x="-240" y="530" width="90" height="40" as="geometry" />
        </mxCell>
        <mxCell id="YpfszNmPL0_AXZ_S2VL3-111" value="" style="rounded=1;whiteSpace=wrap;html=1;" vertex="1" parent="1">
          <mxGeometry x="-240" y="470" width="90" height="40" as="geometry" />
        </mxCell>
        <mxCell id="YpfszNmPL0_AXZ_S2VL3-112" value="&lt;font style=&quot;font-size: 16px;&quot;&gt;30&lt;/font&gt;" style="text;strokeColor=none;align=center;fillColor=none;html=1;verticalAlign=middle;whiteSpace=wrap;rounded=0;" vertex="1" parent="1">
          <mxGeometry x="-225" y="780" width="60" height="30" as="geometry" />
        </mxCell>
        <mxCell id="YpfszNmPL0_AXZ_S2VL3-113" value="&lt;font style=&quot;font-size: 16px;&quot;&gt;3&lt;/font&gt;" style="text;strokeColor=none;align=center;fillColor=none;html=1;verticalAlign=middle;whiteSpace=wrap;rounded=0;" vertex="1" parent="1">
          <mxGeometry x="-225" y="820" width="60" height="30" as="geometry" />
        </mxCell>
        <mxCell id="YpfszNmPL0_AXZ_S2VL3-114" value="" style="rounded=0;whiteSpace=wrap;html=1;" vertex="1" parent="1">
          <mxGeometry x="-75" y="450" width="120" height="410" as="geometry" />
        </mxCell>
        <mxCell id="YpfszNmPL0_AXZ_S2VL3-115" value="" style="rounded=1;whiteSpace=wrap;html=1;fillColor=#fff2cc;strokeColor=#d6b656;" vertex="1" parent="1">
          <mxGeometry x="-60" y="720" width="90" height="40" as="geometry" />
        </mxCell>
        <mxCell id="YpfszNmPL0_AXZ_S2VL3-116" value="" style="rounded=1;whiteSpace=wrap;html=1;" vertex="1" parent="1">
          <mxGeometry x="-60" y="655" width="90" height="40" as="geometry" />
        </mxCell>
        <mxCell id="YpfszNmPL0_AXZ_S2VL3-117" value="" style="rounded=1;whiteSpace=wrap;html=1;" vertex="1" parent="1">
          <mxGeometry x="-60" y="590" width="90" height="40" as="geometry" />
        </mxCell>
        <mxCell id="YpfszNmPL0_AXZ_S2VL3-118" value="" style="rounded=1;whiteSpace=wrap;html=1;" vertex="1" parent="1">
          <mxGeometry x="-60" y="530" width="90" height="40" as="geometry" />
        </mxCell>
        <mxCell id="YpfszNmPL0_AXZ_S2VL3-119" value="" style="rounded=1;whiteSpace=wrap;html=1;" vertex="1" parent="1">
          <mxGeometry x="-60" y="470" width="90" height="40" as="geometry" />
        </mxCell>
        <mxCell id="YpfszNmPL0_AXZ_S2VL3-120" value="&lt;font style=&quot;font-size: 16px;&quot;&gt;50&lt;/font&gt;" style="text;strokeColor=none;align=center;fillColor=none;html=1;verticalAlign=middle;whiteSpace=wrap;rounded=0;" vertex="1" parent="1">
          <mxGeometry x="-45" y="780" width="60" height="30" as="geometry" />
        </mxCell>
        <mxCell id="YpfszNmPL0_AXZ_S2VL3-121" value="&lt;font style=&quot;font-size: 16px;&quot;&gt;1&lt;/font&gt;" style="text;strokeColor=none;align=center;fillColor=none;html=1;verticalAlign=middle;whiteSpace=wrap;rounded=0;" vertex="1" parent="1">
          <mxGeometry x="-45" y="820" width="60" height="30" as="geometry" />
        </mxCell>
        <mxCell id="YpfszNmPL0_AXZ_S2VL3-122" value="" style="rounded=0;whiteSpace=wrap;html=1;" vertex="1" parent="1">
          <mxGeometry x="105" y="450" width="120" height="410" as="geometry" />
        </mxCell>
        <mxCell id="YpfszNmPL0_AXZ_S2VL3-123" value="" style="rounded=1;whiteSpace=wrap;html=1;fillColor=#fff2cc;strokeColor=#d6b656;" vertex="1" parent="1">
          <mxGeometry x="120" y="720" width="90" height="40" as="geometry" />
        </mxCell>
        <mxCell id="YpfszNmPL0_AXZ_S2VL3-124" value="" style="rounded=1;whiteSpace=wrap;html=1;fillColor=#fff2cc;strokeColor=#d6b656;" vertex="1" parent="1">
          <mxGeometry x="120" y="655" width="90" height="40" as="geometry" />
        </mxCell>
        <mxCell id="YpfszNmPL0_AXZ_S2VL3-125" value="" style="rounded=1;whiteSpace=wrap;html=1;" vertex="1" parent="1">
          <mxGeometry x="120" y="590" width="90" height="40" as="geometry" />
        </mxCell>
        <mxCell id="YpfszNmPL0_AXZ_S2VL3-126" value="" style="rounded=1;whiteSpace=wrap;html=1;" vertex="1" parent="1">
          <mxGeometry x="120" y="530" width="90" height="40" as="geometry" />
        </mxCell>
        <mxCell id="YpfszNmPL0_AXZ_S2VL3-127" value="" style="rounded=1;whiteSpace=wrap;html=1;" vertex="1" parent="1">
          <mxGeometry x="120" y="470" width="90" height="40" as="geometry" />
        </mxCell>
        <mxCell id="YpfszNmPL0_AXZ_S2VL3-128" value="&lt;font style=&quot;font-size: 16px;&quot;&gt;80&lt;/font&gt;" style="text;strokeColor=none;align=center;fillColor=none;html=1;verticalAlign=middle;whiteSpace=wrap;rounded=0;" vertex="1" parent="1">
          <mxGeometry x="135" y="780" width="60" height="30" as="geometry" />
        </mxCell>
        <mxCell id="YpfszNmPL0_AXZ_S2VL3-129" value="&lt;font style=&quot;font-size: 16px;&quot;&gt;2&lt;/font&gt;" style="text;strokeColor=none;align=center;fillColor=none;html=1;verticalAlign=middle;whiteSpace=wrap;rounded=0;" vertex="1" parent="1">
          <mxGeometry x="135" y="820" width="60" height="30" as="geometry" />
        </mxCell>
        <mxCell id="YpfszNmPL0_AXZ_S2VL3-130" value="" style="rounded=0;whiteSpace=wrap;html=1;" vertex="1" parent="1">
          <mxGeometry x="275" y="450" width="120" height="410" as="geometry" />
        </mxCell>
        <mxCell id="YpfszNmPL0_AXZ_S2VL3-131" value="" style="rounded=1;whiteSpace=wrap;html=1;" vertex="1" parent="1">
          <mxGeometry x="290" y="720" width="90" height="40" as="geometry" />
        </mxCell>
        <mxCell id="YpfszNmPL0_AXZ_S2VL3-132" value="" style="rounded=1;whiteSpace=wrap;html=1;" vertex="1" parent="1">
          <mxGeometry x="290" y="655" width="90" height="40" as="geometry" />
        </mxCell>
        <mxCell id="YpfszNmPL0_AXZ_S2VL3-133" value="" style="rounded=1;whiteSpace=wrap;html=1;" vertex="1" parent="1">
          <mxGeometry x="290" y="590" width="90" height="40" as="geometry" />
        </mxCell>
        <mxCell id="YpfszNmPL0_AXZ_S2VL3-134" value="" style="rounded=1;whiteSpace=wrap;html=1;" vertex="1" parent="1">
          <mxGeometry x="290" y="530" width="90" height="40" as="geometry" />
        </mxCell>
        <mxCell id="YpfszNmPL0_AXZ_S2VL3-135" value="" style="rounded=1;whiteSpace=wrap;html=1;" vertex="1" parent="1">
          <mxGeometry x="290" y="470" width="90" height="40" as="geometry" />
        </mxCell>
        <mxCell id="YpfszNmPL0_AXZ_S2VL3-136" value="&lt;font style=&quot;font-size: 16px;&quot;&gt;tail&lt;/font&gt;" style="text;strokeColor=none;align=center;fillColor=none;html=1;verticalAlign=middle;whiteSpace=wrap;rounded=0;" vertex="1" parent="1">
          <mxGeometry x="305" y="780" width="60" height="30" as="geometry" />
        </mxCell>
        <mxCell id="YpfszNmPL0_AXZ_S2VL3-137" value="&lt;span style=&quot;font-size: 16px;&quot;&gt;[]&lt;/span&gt;" style="text;strokeColor=none;align=center;fillColor=none;html=1;verticalAlign=middle;whiteSpace=wrap;rounded=0;" vertex="1" parent="1">
          <mxGeometry x="305" y="820" width="60" height="30" as="geometry" />
        </mxCell>
        <mxCell id="YpfszNmPL0_AXZ_S2VL3-138" value="&lt;font style=&quot;font-size: 16px;&quot;&gt;null&lt;/font&gt;" style="text;strokeColor=none;align=center;fillColor=none;html=1;verticalAlign=middle;whiteSpace=wrap;rounded=0;" vertex="1" parent="1">
          <mxGeometry x="305" y="725" width="60" height="30" as="geometry" />
        </mxCell>
        <mxCell id="YpfszNmPL0_AXZ_S2VL3-139" value="&lt;font style=&quot;font-size: 16px;&quot;&gt;null&lt;/font&gt;" style="text;strokeColor=none;align=center;fillColor=none;html=1;verticalAlign=middle;whiteSpace=wrap;rounded=0;" vertex="1" parent="1">
          <mxGeometry x="305" y="660" width="60" height="30" as="geometry" />
        </mxCell>
        <mxCell id="YpfszNmPL0_AXZ_S2VL3-140" value="&lt;font style=&quot;font-size: 16px;&quot;&gt;null&lt;/font&gt;" style="text;strokeColor=none;align=center;fillColor=none;html=1;verticalAlign=middle;whiteSpace=wrap;rounded=0;" vertex="1" parent="1">
          <mxGeometry x="305" y="595" width="60" height="30" as="geometry" />
        </mxCell>
        <mxCell id="YpfszNmPL0_AXZ_S2VL3-141" value="&lt;font style=&quot;font-size: 16px;&quot;&gt;null&lt;/font&gt;" style="text;strokeColor=none;align=center;fillColor=none;html=1;verticalAlign=middle;whiteSpace=wrap;rounded=0;" vertex="1" parent="1">
          <mxGeometry x="305" y="535" width="60" height="30" as="geometry" />
        </mxCell>
        <mxCell id="YpfszNmPL0_AXZ_S2VL3-142" value="&lt;font style=&quot;font-size: 16px;&quot;&gt;null&lt;/font&gt;" style="text;strokeColor=none;align=center;fillColor=none;html=1;verticalAlign=middle;whiteSpace=wrap;rounded=0;" vertex="1" parent="1">
          <mxGeometry x="305" y="475" width="60" height="30" as="geometry" />
        </mxCell>
        <mxCell id="YpfszNmPL0_AXZ_S2VL3-143" value="&lt;font style=&quot;font-size: 16px;&quot;&gt;tail&lt;/font&gt;" style="text;strokeColor=none;align=center;fillColor=none;html=1;verticalAlign=middle;whiteSpace=wrap;rounded=0;" vertex="1" parent="1">
          <mxGeometry x="-410" y="475" width="60" height="30" as="geometry" />
        </mxCell>
        <mxCell id="YpfszNmPL0_AXZ_S2VL3-144" value="&lt;font style=&quot;font-size: 16px;&quot;&gt;tail&lt;/font&gt;" style="text;strokeColor=none;align=center;fillColor=none;html=1;verticalAlign=middle;whiteSpace=wrap;rounded=0;" vertex="1" parent="1">
          <mxGeometry x="-410" y="535" width="60" height="30" as="geometry" />
        </mxCell>
        <mxCell id="YpfszNmPL0_AXZ_S2VL3-145" value="&lt;font style=&quot;font-size: 16px;&quot;&gt;30&lt;/font&gt;" style="text;strokeColor=none;align=center;fillColor=none;html=1;verticalAlign=middle;whiteSpace=wrap;rounded=0;" vertex="1" parent="1">
          <mxGeometry x="-410" y="595" width="60" height="30" as="geometry" />
        </mxCell>
        <mxCell id="YpfszNmPL0_AXZ_S2VL3-146" value="&lt;font style=&quot;font-size: 16px;&quot;&gt;30&lt;/font&gt;" style="text;strokeColor=none;align=center;fillColor=none;html=1;verticalAlign=middle;whiteSpace=wrap;rounded=0;" vertex="1" parent="1">
          <mxGeometry x="-410" y="660" width="60" height="30" as="geometry" />
        </mxCell>
        <mxCell id="YpfszNmPL0_AXZ_S2VL3-147" value="&lt;font style=&quot;font-size: 16px;&quot;&gt;30&lt;/font&gt;" style="text;strokeColor=none;align=center;fillColor=none;html=1;verticalAlign=middle;whiteSpace=wrap;rounded=0;" vertex="1" parent="1">
          <mxGeometry x="-410" y="725" width="60" height="30" as="geometry" />
        </mxCell>
        <mxCell id="YpfszNmPL0_AXZ_S2VL3-148" value="&lt;font style=&quot;font-size: 16px;&quot;&gt;50&lt;/font&gt;" style="text;strokeColor=none;align=center;fillColor=none;html=1;verticalAlign=middle;whiteSpace=wrap;rounded=0;" vertex="1" parent="1">
          <mxGeometry x="-225" y="725" width="60" height="30" as="geometry" />
        </mxCell>
        <mxCell id="YpfszNmPL0_AXZ_S2VL3-149" value="&lt;font style=&quot;font-size: 16px;&quot;&gt;80&lt;/font&gt;" style="text;strokeColor=none;align=center;fillColor=none;html=1;verticalAlign=middle;whiteSpace=wrap;rounded=0;" vertex="1" parent="1">
          <mxGeometry x="-225" y="660" width="60" height="30" as="geometry" />
        </mxCell>
        <mxCell id="YpfszNmPL0_AXZ_S2VL3-150" value="&lt;font style=&quot;font-size: 16px;&quot;&gt;tail&lt;/font&gt;" style="text;strokeColor=none;align=center;fillColor=none;html=1;verticalAlign=middle;whiteSpace=wrap;rounded=0;" vertex="1" parent="1">
          <mxGeometry x="-225" y="595" width="60" height="30" as="geometry" />
        </mxCell>
        <mxCell id="YpfszNmPL0_AXZ_S2VL3-151" value="&lt;font style=&quot;font-size: 16px;&quot;&gt;80&lt;/font&gt;" style="text;strokeColor=none;align=center;fillColor=none;html=1;verticalAlign=middle;whiteSpace=wrap;rounded=0;" vertex="1" parent="1">
          <mxGeometry x="-45" y="725" width="60" height="30" as="geometry" />
        </mxCell>
        <mxCell id="YpfszNmPL0_AXZ_S2VL3-152" value="&lt;font style=&quot;font-size: 16px;&quot;&gt;tail&lt;/font&gt;" style="text;strokeColor=none;align=center;fillColor=none;html=1;verticalAlign=middle;whiteSpace=wrap;rounded=0;" vertex="1" parent="1">
          <mxGeometry x="135" y="660" width="60" height="30" as="geometry" />
        </mxCell>
        <mxCell id="YpfszNmPL0_AXZ_S2VL3-153" value="&lt;font style=&quot;font-size: 16px;&quot;&gt;tail&lt;/font&gt;" style="text;strokeColor=none;align=center;fillColor=none;html=1;verticalAlign=middle;whiteSpace=wrap;rounded=0;" vertex="1" parent="1">
          <mxGeometry x="135" y="725" width="60" height="30" as="geometry" />
        </mxCell>
      </root>
    </mxGraphModel>
  </diagram>
</mxfile>
